<mxfile host="65bd71144e">
    <diagram id="D-N7t5Y-LFO-UV2LRgHT" name="Página-1">
        <mxGraphModel dx="3535" dy="1053" grid="0" gridSize="10" guides="1" tooltips="1" connect="1" arrows="1" fold="1" page="1" pageScale="1" pageWidth="827" pageHeight="1169" background="none" math="0" shadow="0">
            <root>
                <mxCell id="0"/>
                <mxCell id="1" parent="0"/>
                <mxCell id="UWY2C43Gr1zC6XrSUPjF-1" value="Animais" style="shape=table;startSize=30;container=1;collapsible=1;childLayout=tableLayout;fixedRows=1;rowLines=0;fontStyle=1;align=center;resizeLast=1;" parent="1" vertex="1">
                    <mxGeometry x="-480" y="500" width="340" height="210" as="geometry"/>
                </mxCell>
                <mxCell id="UWY2C43Gr1zC6XrSUPjF-2" value="" style="shape=tableRow;horizontal=0;startSize=0;swimlaneHead=0;swimlaneBody=0;fillColor=none;collapsible=0;dropTarget=0;points=[[0,0.5],[1,0.5]];portConstraint=eastwest;top=0;left=0;right=0;bottom=1;" parent="UWY2C43Gr1zC6XrSUPjF-1" vertex="1">
                    <mxGeometry y="30" width="340" height="30" as="geometry"/>
                </mxCell>
                <mxCell id="UWY2C43Gr1zC6XrSUPjF-3" value="PK" style="shape=partialRectangle;connectable=0;fillColor=none;top=0;left=0;bottom=0;right=0;fontStyle=1;overflow=hidden;" parent="UWY2C43Gr1zC6XrSUPjF-2" vertex="1">
                    <mxGeometry width="30" height="30" as="geometry">
                        <mxRectangle width="30" height="30" as="alternateBounds"/>
                    </mxGeometry>
                </mxCell>
                <mxCell id="UWY2C43Gr1zC6XrSUPjF-4" value="animal ID int not null auto encrement primary key" style="shape=partialRectangle;connectable=0;fillColor=none;top=0;left=0;bottom=0;right=0;align=left;spacingLeft=6;fontStyle=5;overflow=hidden;" parent="UWY2C43Gr1zC6XrSUPjF-2" vertex="1">
                    <mxGeometry x="30" width="310" height="30" as="geometry">
                        <mxRectangle width="310" height="30" as="alternateBounds"/>
                    </mxGeometry>
                </mxCell>
                <mxCell id="UWY2C43Gr1zC6XrSUPjF-5" value="" style="shape=tableRow;horizontal=0;startSize=0;swimlaneHead=0;swimlaneBody=0;fillColor=none;collapsible=0;dropTarget=0;points=[[0,0.5],[1,0.5]];portConstraint=eastwest;top=0;left=0;right=0;bottom=0;" parent="UWY2C43Gr1zC6XrSUPjF-1" vertex="1">
                    <mxGeometry y="60" width="340" height="30" as="geometry"/>
                </mxCell>
                <mxCell id="UWY2C43Gr1zC6XrSUPjF-6" value="" style="shape=partialRectangle;connectable=0;fillColor=none;top=0;left=0;bottom=0;right=0;editable=1;overflow=hidden;" parent="UWY2C43Gr1zC6XrSUPjF-5" vertex="1">
                    <mxGeometry width="30" height="30" as="geometry">
                        <mxRectangle width="30" height="30" as="alternateBounds"/>
                    </mxGeometry>
                </mxCell>
                <mxCell id="UWY2C43Gr1zC6XrSUPjF-7" value="tipo  varchar (80)" style="shape=partialRectangle;connectable=0;fillColor=none;top=0;left=0;bottom=0;right=0;align=left;spacingLeft=6;overflow=hidden;" parent="UWY2C43Gr1zC6XrSUPjF-5" vertex="1">
                    <mxGeometry x="30" width="310" height="30" as="geometry">
                        <mxRectangle width="310" height="30" as="alternateBounds"/>
                    </mxGeometry>
                </mxCell>
                <mxCell id="UWY2C43Gr1zC6XrSUPjF-8" value="" style="shape=tableRow;horizontal=0;startSize=0;swimlaneHead=0;swimlaneBody=0;fillColor=none;collapsible=0;dropTarget=0;points=[[0,0.5],[1,0.5]];portConstraint=eastwest;top=0;left=0;right=0;bottom=0;" parent="UWY2C43Gr1zC6XrSUPjF-1" vertex="1">
                    <mxGeometry y="90" width="340" height="30" as="geometry"/>
                </mxCell>
                <mxCell id="UWY2C43Gr1zC6XrSUPjF-9" value="" style="shape=partialRectangle;connectable=0;fillColor=none;top=0;left=0;bottom=0;right=0;editable=1;overflow=hidden;" parent="UWY2C43Gr1zC6XrSUPjF-8" vertex="1">
                    <mxGeometry width="30" height="30" as="geometry">
                        <mxRectangle width="30" height="30" as="alternateBounds"/>
                    </mxGeometry>
                </mxCell>
                <mxCell id="UWY2C43Gr1zC6XrSUPjF-10" value="nome varchar (100)" style="shape=partialRectangle;connectable=0;fillColor=none;top=0;left=0;bottom=0;right=0;align=left;spacingLeft=6;overflow=hidden;" parent="UWY2C43Gr1zC6XrSUPjF-8" vertex="1">
                    <mxGeometry x="30" width="310" height="30" as="geometry">
                        <mxRectangle width="310" height="30" as="alternateBounds"/>
                    </mxGeometry>
                </mxCell>
                <mxCell id="UWY2C43Gr1zC6XrSUPjF-11" value="" style="shape=tableRow;horizontal=0;startSize=0;swimlaneHead=0;swimlaneBody=0;fillColor=none;collapsible=0;dropTarget=0;points=[[0,0.5],[1,0.5]];portConstraint=eastwest;top=0;left=0;right=0;bottom=0;" parent="UWY2C43Gr1zC6XrSUPjF-1" vertex="1">
                    <mxGeometry y="120" width="340" height="30" as="geometry"/>
                </mxCell>
                <mxCell id="UWY2C43Gr1zC6XrSUPjF-12" value="" style="shape=partialRectangle;connectable=0;fillColor=none;top=0;left=0;bottom=0;right=0;editable=1;overflow=hidden;" parent="UWY2C43Gr1zC6XrSUPjF-11" vertex="1">
                    <mxGeometry width="30" height="30" as="geometry">
                        <mxRectangle width="30" height="30" as="alternateBounds"/>
                    </mxGeometry>
                </mxCell>
                <mxCell id="UWY2C43Gr1zC6XrSUPjF-13" value="porte varchar (50)" style="shape=partialRectangle;connectable=0;fillColor=none;top=0;left=0;bottom=0;right=0;align=left;spacingLeft=6;overflow=hidden;" parent="UWY2C43Gr1zC6XrSUPjF-11" vertex="1">
                    <mxGeometry x="30" width="310" height="30" as="geometry">
                        <mxRectangle width="310" height="30" as="alternateBounds"/>
                    </mxGeometry>
                </mxCell>
                <mxCell id="UWY2C43Gr1zC6XrSUPjF-45" value="" style="shape=tableRow;horizontal=0;startSize=0;swimlaneHead=0;swimlaneBody=0;fillColor=none;collapsible=0;dropTarget=0;points=[[0,0.5],[1,0.5]];portConstraint=eastwest;top=0;left=0;right=0;bottom=0;" parent="UWY2C43Gr1zC6XrSUPjF-1" vertex="1">
                    <mxGeometry y="150" width="340" height="30" as="geometry"/>
                </mxCell>
                <mxCell id="UWY2C43Gr1zC6XrSUPjF-46" value="" style="shape=partialRectangle;connectable=0;fillColor=none;top=0;left=0;bottom=0;right=0;editable=1;overflow=hidden;" parent="UWY2C43Gr1zC6XrSUPjF-45" vertex="1">
                    <mxGeometry width="30" height="30" as="geometry">
                        <mxRectangle width="30" height="30" as="alternateBounds"/>
                    </mxGeometry>
                </mxCell>
                <mxCell id="UWY2C43Gr1zC6XrSUPjF-47" value="cliente ID int " style="shape=partialRectangle;connectable=0;fillColor=none;top=0;left=0;bottom=0;right=0;align=left;spacingLeft=6;overflow=hidden;" parent="UWY2C43Gr1zC6XrSUPjF-45" vertex="1">
                    <mxGeometry x="30" width="310" height="30" as="geometry">
                        <mxRectangle width="310" height="30" as="alternateBounds"/>
                    </mxGeometry>
                </mxCell>
                <mxCell id="UWY2C43Gr1zC6XrSUPjF-192" value="" style="shape=tableRow;horizontal=0;startSize=0;swimlaneHead=0;swimlaneBody=0;fillColor=none;collapsible=0;dropTarget=0;points=[[0,0.5],[1,0.5]];portConstraint=eastwest;top=0;left=0;right=0;bottom=0;" parent="UWY2C43Gr1zC6XrSUPjF-1" vertex="1">
                    <mxGeometry y="180" width="340" height="30" as="geometry"/>
                </mxCell>
                <mxCell id="UWY2C43Gr1zC6XrSUPjF-193" value="" style="shape=partialRectangle;connectable=0;fillColor=none;top=0;left=0;bottom=0;right=0;editable=1;overflow=hidden;" parent="UWY2C43Gr1zC6XrSUPjF-192" vertex="1">
                    <mxGeometry width="30" height="30" as="geometry">
                        <mxRectangle width="30" height="30" as="alternateBounds"/>
                    </mxGeometry>
                </mxCell>
                <mxCell id="UWY2C43Gr1zC6XrSUPjF-194" value="raca varchar (80)" style="shape=partialRectangle;connectable=0;fillColor=none;top=0;left=0;bottom=0;right=0;align=left;spacingLeft=6;overflow=hidden;" parent="UWY2C43Gr1zC6XrSUPjF-192" vertex="1">
                    <mxGeometry x="30" width="310" height="30" as="geometry">
                        <mxRectangle width="310" height="30" as="alternateBounds"/>
                    </mxGeometry>
                </mxCell>
                <mxCell id="UWY2C43Gr1zC6XrSUPjF-14" value="Clientes" style="shape=table;startSize=30;container=1;collapsible=1;childLayout=tableLayout;fixedRows=1;rowLines=0;fontStyle=1;align=center;resizeLast=1;" parent="1" vertex="1">
                    <mxGeometry x="-480" y="150" width="330" height="210" as="geometry"/>
                </mxCell>
                <mxCell id="UWY2C43Gr1zC6XrSUPjF-15" value="" style="shape=tableRow;horizontal=0;startSize=0;swimlaneHead=0;swimlaneBody=0;fillColor=none;collapsible=0;dropTarget=0;points=[[0,0.5],[1,0.5]];portConstraint=eastwest;top=0;left=0;right=0;bottom=1;" parent="UWY2C43Gr1zC6XrSUPjF-14" vertex="1">
                    <mxGeometry y="30" width="330" height="30" as="geometry"/>
                </mxCell>
                <mxCell id="UWY2C43Gr1zC6XrSUPjF-16" value="PK" style="shape=partialRectangle;connectable=0;fillColor=none;top=0;left=0;bottom=0;right=0;fontStyle=1;overflow=hidden;" parent="UWY2C43Gr1zC6XrSUPjF-15" vertex="1">
                    <mxGeometry width="30" height="30" as="geometry">
                        <mxRectangle width="30" height="30" as="alternateBounds"/>
                    </mxGeometry>
                </mxCell>
                <mxCell id="UWY2C43Gr1zC6XrSUPjF-17" value="cliente ID int not null auto increment primary key" style="shape=partialRectangle;connectable=0;fillColor=none;top=0;left=0;bottom=0;right=0;align=left;spacingLeft=6;fontStyle=5;overflow=hidden;" parent="UWY2C43Gr1zC6XrSUPjF-15" vertex="1">
                    <mxGeometry x="30" width="300" height="30" as="geometry">
                        <mxRectangle width="300" height="30" as="alternateBounds"/>
                    </mxGeometry>
                </mxCell>
                <mxCell id="UWY2C43Gr1zC6XrSUPjF-18" value="" style="shape=tableRow;horizontal=0;startSize=0;swimlaneHead=0;swimlaneBody=0;fillColor=none;collapsible=0;dropTarget=0;points=[[0,0.5],[1,0.5]];portConstraint=eastwest;top=0;left=0;right=0;bottom=0;" parent="UWY2C43Gr1zC6XrSUPjF-14" vertex="1">
                    <mxGeometry y="60" width="330" height="30" as="geometry"/>
                </mxCell>
                <mxCell id="UWY2C43Gr1zC6XrSUPjF-19" value="" style="shape=partialRectangle;connectable=0;fillColor=none;top=0;left=0;bottom=0;right=0;editable=1;overflow=hidden;" parent="UWY2C43Gr1zC6XrSUPjF-18" vertex="1">
                    <mxGeometry width="30" height="30" as="geometry">
                        <mxRectangle width="30" height="30" as="alternateBounds"/>
                    </mxGeometry>
                </mxCell>
                <mxCell id="UWY2C43Gr1zC6XrSUPjF-20" value="nome varchar (150)" style="shape=partialRectangle;connectable=0;fillColor=none;top=0;left=0;bottom=0;right=0;align=left;spacingLeft=6;overflow=hidden;" parent="UWY2C43Gr1zC6XrSUPjF-18" vertex="1">
                    <mxGeometry x="30" width="300" height="30" as="geometry">
                        <mxRectangle width="300" height="30" as="alternateBounds"/>
                    </mxGeometry>
                </mxCell>
                <mxCell id="UWY2C43Gr1zC6XrSUPjF-21" value="" style="shape=tableRow;horizontal=0;startSize=0;swimlaneHead=0;swimlaneBody=0;fillColor=none;collapsible=0;dropTarget=0;points=[[0,0.5],[1,0.5]];portConstraint=eastwest;top=0;left=0;right=0;bottom=0;" parent="UWY2C43Gr1zC6XrSUPjF-14" vertex="1">
                    <mxGeometry y="90" width="330" height="30" as="geometry"/>
                </mxCell>
                <mxCell id="UWY2C43Gr1zC6XrSUPjF-22" value="" style="shape=partialRectangle;connectable=0;fillColor=none;top=0;left=0;bottom=0;right=0;editable=1;overflow=hidden;" parent="UWY2C43Gr1zC6XrSUPjF-21" vertex="1">
                    <mxGeometry width="30" height="30" as="geometry">
                        <mxRectangle width="30" height="30" as="alternateBounds"/>
                    </mxGeometry>
                </mxCell>
                <mxCell id="UWY2C43Gr1zC6XrSUPjF-23" value="sobrenome varchar (150)" style="shape=partialRectangle;connectable=0;fillColor=none;top=0;left=0;bottom=0;right=0;align=left;spacingLeft=6;overflow=hidden;" parent="UWY2C43Gr1zC6XrSUPjF-21" vertex="1">
                    <mxGeometry x="30" width="300" height="30" as="geometry">
                        <mxRectangle width="300" height="30" as="alternateBounds"/>
                    </mxGeometry>
                </mxCell>
                <mxCell id="UWY2C43Gr1zC6XrSUPjF-24" value="" style="shape=tableRow;horizontal=0;startSize=0;swimlaneHead=0;swimlaneBody=0;fillColor=none;collapsible=0;dropTarget=0;points=[[0,0.5],[1,0.5]];portConstraint=eastwest;top=0;left=0;right=0;bottom=0;" parent="UWY2C43Gr1zC6XrSUPjF-14" vertex="1">
                    <mxGeometry y="120" width="330" height="30" as="geometry"/>
                </mxCell>
                <mxCell id="UWY2C43Gr1zC6XrSUPjF-25" value="" style="shape=partialRectangle;connectable=0;fillColor=none;top=0;left=0;bottom=0;right=0;editable=1;overflow=hidden;" parent="UWY2C43Gr1zC6XrSUPjF-24" vertex="1">
                    <mxGeometry width="30" height="30" as="geometry">
                        <mxRectangle width="30" height="30" as="alternateBounds"/>
                    </mxGeometry>
                </mxCell>
                <mxCell id="UWY2C43Gr1zC6XrSUPjF-26" value="endereco ID int" style="shape=partialRectangle;connectable=0;fillColor=none;top=0;left=0;bottom=0;right=0;align=left;spacingLeft=6;overflow=hidden;" parent="UWY2C43Gr1zC6XrSUPjF-24" vertex="1">
                    <mxGeometry x="30" width="300" height="30" as="geometry">
                        <mxRectangle width="300" height="30" as="alternateBounds"/>
                    </mxGeometry>
                </mxCell>
                <mxCell id="UWY2C43Gr1zC6XrSUPjF-188" value="" style="shape=tableRow;horizontal=0;startSize=0;swimlaneHead=0;swimlaneBody=0;fillColor=none;collapsible=0;dropTarget=0;points=[[0,0.5],[1,0.5]];portConstraint=eastwest;top=0;left=0;right=0;bottom=0;" parent="UWY2C43Gr1zC6XrSUPjF-14" vertex="1">
                    <mxGeometry y="150" width="330" height="30" as="geometry"/>
                </mxCell>
                <mxCell id="UWY2C43Gr1zC6XrSUPjF-189" value="" style="shape=partialRectangle;connectable=0;fillColor=none;top=0;left=0;bottom=0;right=0;editable=1;overflow=hidden;" parent="UWY2C43Gr1zC6XrSUPjF-188" vertex="1">
                    <mxGeometry width="30" height="30" as="geometry">
                        <mxRectangle width="30" height="30" as="alternateBounds"/>
                    </mxGeometry>
                </mxCell>
                <mxCell id="UWY2C43Gr1zC6XrSUPjF-190" value="CPF varchar (11)" style="shape=partialRectangle;connectable=0;fillColor=none;top=0;left=0;bottom=0;right=0;align=left;spacingLeft=6;overflow=hidden;" parent="UWY2C43Gr1zC6XrSUPjF-188" vertex="1">
                    <mxGeometry x="30" width="300" height="30" as="geometry">
                        <mxRectangle width="300" height="30" as="alternateBounds"/>
                    </mxGeometry>
                </mxCell>
                <mxCell id="UWY2C43Gr1zC6XrSUPjF-196" value="" style="shape=tableRow;horizontal=0;startSize=0;swimlaneHead=0;swimlaneBody=0;fillColor=none;collapsible=0;dropTarget=0;points=[[0,0.5],[1,0.5]];portConstraint=eastwest;top=0;left=0;right=0;bottom=0;" parent="UWY2C43Gr1zC6XrSUPjF-14" vertex="1">
                    <mxGeometry y="180" width="330" height="30" as="geometry"/>
                </mxCell>
                <mxCell id="UWY2C43Gr1zC6XrSUPjF-197" value="" style="shape=partialRectangle;connectable=0;fillColor=none;top=0;left=0;bottom=0;right=0;editable=1;overflow=hidden;" parent="UWY2C43Gr1zC6XrSUPjF-196" vertex="1">
                    <mxGeometry width="30" height="30" as="geometry">
                        <mxRectangle width="30" height="30" as="alternateBounds"/>
                    </mxGeometry>
                </mxCell>
                <mxCell id="UWY2C43Gr1zC6XrSUPjF-198" value="telefone varchar (9)" style="shape=partialRectangle;connectable=0;fillColor=none;top=0;left=0;bottom=0;right=0;align=left;spacingLeft=6;overflow=hidden;" parent="UWY2C43Gr1zC6XrSUPjF-196" vertex="1">
                    <mxGeometry x="30" width="300" height="30" as="geometry">
                        <mxRectangle width="300" height="30" as="alternateBounds"/>
                    </mxGeometry>
                </mxCell>
                <mxCell id="UWY2C43Gr1zC6XrSUPjF-27" value="Produtos" style="shape=table;startSize=30;container=1;collapsible=1;childLayout=tableLayout;fixedRows=1;rowLines=0;fontStyle=1;align=center;resizeLast=1;" parent="1" vertex="1">
                    <mxGeometry x="370" y="180" width="340" height="180" as="geometry"/>
                </mxCell>
                <mxCell id="UWY2C43Gr1zC6XrSUPjF-28" value="" style="shape=tableRow;horizontal=0;startSize=0;swimlaneHead=0;swimlaneBody=0;fillColor=none;collapsible=0;dropTarget=0;points=[[0,0.5],[1,0.5]];portConstraint=eastwest;top=0;left=0;right=0;bottom=1;" parent="UWY2C43Gr1zC6XrSUPjF-27" vertex="1">
                    <mxGeometry y="30" width="340" height="30" as="geometry"/>
                </mxCell>
                <mxCell id="UWY2C43Gr1zC6XrSUPjF-29" value="PK" style="shape=partialRectangle;connectable=0;fillColor=none;top=0;left=0;bottom=0;right=0;fontStyle=1;overflow=hidden;" parent="UWY2C43Gr1zC6XrSUPjF-28" vertex="1">
                    <mxGeometry width="30" height="30" as="geometry">
                        <mxRectangle width="30" height="30" as="alternateBounds"/>
                    </mxGeometry>
                </mxCell>
                <mxCell id="UWY2C43Gr1zC6XrSUPjF-30" value="produto ID  int not null auto increment primary key" style="shape=partialRectangle;connectable=0;fillColor=none;top=0;left=0;bottom=0;right=0;align=left;spacingLeft=6;fontStyle=5;overflow=hidden;" parent="UWY2C43Gr1zC6XrSUPjF-28" vertex="1">
                    <mxGeometry x="30" width="310" height="30" as="geometry">
                        <mxRectangle width="310" height="30" as="alternateBounds"/>
                    </mxGeometry>
                </mxCell>
                <mxCell id="UWY2C43Gr1zC6XrSUPjF-31" value="" style="shape=tableRow;horizontal=0;startSize=0;swimlaneHead=0;swimlaneBody=0;fillColor=none;collapsible=0;dropTarget=0;points=[[0,0.5],[1,0.5]];portConstraint=eastwest;top=0;left=0;right=0;bottom=0;" parent="UWY2C43Gr1zC6XrSUPjF-27" vertex="1">
                    <mxGeometry y="60" width="340" height="30" as="geometry"/>
                </mxCell>
                <mxCell id="UWY2C43Gr1zC6XrSUPjF-32" value="" style="shape=partialRectangle;connectable=0;fillColor=none;top=0;left=0;bottom=0;right=0;editable=1;overflow=hidden;" parent="UWY2C43Gr1zC6XrSUPjF-31" vertex="1">
                    <mxGeometry width="30" height="30" as="geometry">
                        <mxRectangle width="30" height="30" as="alternateBounds"/>
                    </mxGeometry>
                </mxCell>
                <mxCell id="UWY2C43Gr1zC6XrSUPjF-33" value="nome varchar (100)" style="shape=partialRectangle;connectable=0;fillColor=none;top=0;left=0;bottom=0;right=0;align=left;spacingLeft=6;overflow=hidden;" parent="UWY2C43Gr1zC6XrSUPjF-31" vertex="1">
                    <mxGeometry x="30" width="310" height="30" as="geometry">
                        <mxRectangle width="310" height="30" as="alternateBounds"/>
                    </mxGeometry>
                </mxCell>
                <mxCell id="UWY2C43Gr1zC6XrSUPjF-34" value="" style="shape=tableRow;horizontal=0;startSize=0;swimlaneHead=0;swimlaneBody=0;fillColor=none;collapsible=0;dropTarget=0;points=[[0,0.5],[1,0.5]];portConstraint=eastwest;top=0;left=0;right=0;bottom=0;" parent="UWY2C43Gr1zC6XrSUPjF-27" vertex="1">
                    <mxGeometry y="90" width="340" height="30" as="geometry"/>
                </mxCell>
                <mxCell id="UWY2C43Gr1zC6XrSUPjF-35" value="" style="shape=partialRectangle;connectable=0;fillColor=none;top=0;left=0;bottom=0;right=0;editable=1;overflow=hidden;" parent="UWY2C43Gr1zC6XrSUPjF-34" vertex="1">
                    <mxGeometry width="30" height="30" as="geometry">
                        <mxRectangle width="30" height="30" as="alternateBounds"/>
                    </mxGeometry>
                </mxCell>
                <mxCell id="UWY2C43Gr1zC6XrSUPjF-36" value="preco decimal " style="shape=partialRectangle;connectable=0;fillColor=none;top=0;left=0;bottom=0;right=0;align=left;spacingLeft=6;overflow=hidden;" parent="UWY2C43Gr1zC6XrSUPjF-34" vertex="1">
                    <mxGeometry x="30" width="310" height="30" as="geometry">
                        <mxRectangle width="310" height="30" as="alternateBounds"/>
                    </mxGeometry>
                </mxCell>
                <mxCell id="UWY2C43Gr1zC6XrSUPjF-37" value="" style="shape=tableRow;horizontal=0;startSize=0;swimlaneHead=0;swimlaneBody=0;fillColor=none;collapsible=0;dropTarget=0;points=[[0,0.5],[1,0.5]];portConstraint=eastwest;top=0;left=0;right=0;bottom=0;" parent="UWY2C43Gr1zC6XrSUPjF-27" vertex="1">
                    <mxGeometry y="120" width="340" height="30" as="geometry"/>
                </mxCell>
                <mxCell id="UWY2C43Gr1zC6XrSUPjF-38" value="" style="shape=partialRectangle;connectable=0;fillColor=none;top=0;left=0;bottom=0;right=0;editable=1;overflow=hidden;" parent="UWY2C43Gr1zC6XrSUPjF-37" vertex="1">
                    <mxGeometry width="30" height="30" as="geometry">
                        <mxRectangle width="30" height="30" as="alternateBounds"/>
                    </mxGeometry>
                </mxCell>
                <mxCell id="UWY2C43Gr1zC6XrSUPjF-39" value="categoria varchar (50)" style="shape=partialRectangle;connectable=0;fillColor=none;top=0;left=0;bottom=0;right=0;align=left;spacingLeft=6;overflow=hidden;" parent="UWY2C43Gr1zC6XrSUPjF-37" vertex="1">
                    <mxGeometry x="30" width="310" height="30" as="geometry">
                        <mxRectangle width="310" height="30" as="alternateBounds"/>
                    </mxGeometry>
                </mxCell>
                <mxCell id="UWY2C43Gr1zC6XrSUPjF-294" value="" style="shape=tableRow;horizontal=0;startSize=0;swimlaneHead=0;swimlaneBody=0;fillColor=none;collapsible=0;dropTarget=0;points=[[0,0.5],[1,0.5]];portConstraint=eastwest;top=0;left=0;right=0;bottom=0;" parent="UWY2C43Gr1zC6XrSUPjF-27" vertex="1">
                    <mxGeometry y="150" width="340" height="30" as="geometry"/>
                </mxCell>
                <mxCell id="UWY2C43Gr1zC6XrSUPjF-295" value="" style="shape=partialRectangle;connectable=0;fillColor=none;top=0;left=0;bottom=0;right=0;editable=1;overflow=hidden;" parent="UWY2C43Gr1zC6XrSUPjF-294" vertex="1">
                    <mxGeometry width="30" height="30" as="geometry">
                        <mxRectangle width="30" height="30" as="alternateBounds"/>
                    </mxGeometry>
                </mxCell>
                <mxCell id="UWY2C43Gr1zC6XrSUPjF-296" value="fornecedor ID int" style="shape=partialRectangle;connectable=0;fillColor=none;top=0;left=0;bottom=0;right=0;align=left;spacingLeft=6;overflow=hidden;" parent="UWY2C43Gr1zC6XrSUPjF-294" vertex="1">
                    <mxGeometry x="30" width="310" height="30" as="geometry">
                        <mxRectangle width="310" height="30" as="alternateBounds"/>
                    </mxGeometry>
                </mxCell>
                <mxCell id="UWY2C43Gr1zC6XrSUPjF-118" value="&lt;h1&gt;Descrição:&lt;/h1&gt;&lt;p&gt;&lt;/p&gt;&lt;div style=&quot;text-align: justify;&quot;&gt;Este modelo representa um banco de dados de um petshop, onde apresentamos tanto os serviços de banho e tosa, quanto a venda de produtos voltados aos animais de estimação domesticos .&lt;/div&gt;&lt;div style=&quot;text-align: justify;&quot;&gt;&lt;br&gt;&lt;/div&gt;&lt;div style=&quot;text-align: justify;&quot;&gt;Temos a entidade animais, que possui os atributos tipo, nome, porte &amp;nbsp;e raça, além da chave estrangeira cliente ID.&lt;/div&gt;&lt;div style=&quot;text-align: justify;&quot;&gt;Na entidade clientes, temos os atributos nome &amp;nbsp;e sobrenome, CPF, telefone para contato e a chave estrangeira endereco ID;&lt;/div&gt;&lt;div style=&quot;text-align: justify;&quot;&gt;Já na entidade Fornecedores, temos o nome, CNPJ, representante, telefone para contato e também, a chave estrangeira endereco ID;&lt;/div&gt;&lt;div style=&quot;text-align: justify;&quot;&gt;Na entidade Estoque, temos os atributos quantidade e a chave estrangeira produto ID;&lt;/div&gt;&lt;div style=&quot;text-align: justify;&quot;&gt;Na entidade Produtos apresentamos os atributos nome, preço, categoria e a chave estrangeira fornecedor ID;&lt;/div&gt;&lt;div style=&quot;text-align: justify;&quot;&gt;Por fim, na entidade Endereco temos os atributos logradouro, numero, cidade, estado, cep e complemento, entidade esta que esta relacionada com as entidades clientes e fornecedores com cardinalidade definida para ambas como 1:1.&lt;/div&gt;&lt;p&gt;&lt;/p&gt;" style="text;html=1;spacing=5;spacingTop=-20;whiteSpace=wrap;overflow=hidden;rounded=0;strokeColor=default;" parent="1" vertex="1">
                    <mxGeometry x="-360" y="790" width="890" height="200" as="geometry"/>
                </mxCell>
                <mxCell id="UWY2C43Gr1zC6XrSUPjF-199" value="Enderecos" style="shape=table;startSize=30;container=1;collapsible=1;childLayout=tableLayout;fixedRows=1;rowLines=0;fontStyle=1;align=center;resizeLast=1;" parent="1" vertex="1">
                    <mxGeometry x="-65" y="320" width="355" height="250" as="geometry"/>
                </mxCell>
                <mxCell id="UWY2C43Gr1zC6XrSUPjF-200" value="" style="shape=tableRow;horizontal=0;startSize=0;swimlaneHead=0;swimlaneBody=0;fillColor=none;collapsible=0;dropTarget=0;points=[[0,0.5],[1,0.5]];portConstraint=eastwest;top=0;left=0;right=0;bottom=1;" parent="UWY2C43Gr1zC6XrSUPjF-199" vertex="1">
                    <mxGeometry y="30" width="355" height="30" as="geometry"/>
                </mxCell>
                <mxCell id="UWY2C43Gr1zC6XrSUPjF-201" value="PK" style="shape=partialRectangle;connectable=0;fillColor=none;top=0;left=0;bottom=0;right=0;fontStyle=1;overflow=hidden;" parent="UWY2C43Gr1zC6XrSUPjF-200" vertex="1">
                    <mxGeometry width="30" height="30" as="geometry">
                        <mxRectangle width="30" height="30" as="alternateBounds"/>
                    </mxGeometry>
                </mxCell>
                <mxCell id="UWY2C43Gr1zC6XrSUPjF-202" value="endereco ID int not null auto encrement primary key" style="shape=partialRectangle;connectable=0;fillColor=none;top=0;left=0;bottom=0;right=0;align=left;spacingLeft=6;fontStyle=5;overflow=hidden;" parent="UWY2C43Gr1zC6XrSUPjF-200" vertex="1">
                    <mxGeometry x="30" width="325" height="30" as="geometry">
                        <mxRectangle width="325" height="30" as="alternateBounds"/>
                    </mxGeometry>
                </mxCell>
                <mxCell id="UWY2C43Gr1zC6XrSUPjF-203" value="" style="shape=tableRow;horizontal=0;startSize=0;swimlaneHead=0;swimlaneBody=0;fillColor=none;collapsible=0;dropTarget=0;points=[[0,0.5],[1,0.5]];portConstraint=eastwest;top=0;left=0;right=0;bottom=0;" parent="UWY2C43Gr1zC6XrSUPjF-199" vertex="1">
                    <mxGeometry y="60" width="355" height="30" as="geometry"/>
                </mxCell>
                <mxCell id="UWY2C43Gr1zC6XrSUPjF-204" value="" style="shape=partialRectangle;connectable=0;fillColor=none;top=0;left=0;bottom=0;right=0;editable=1;overflow=hidden;" parent="UWY2C43Gr1zC6XrSUPjF-203" vertex="1">
                    <mxGeometry width="30" height="30" as="geometry">
                        <mxRectangle width="30" height="30" as="alternateBounds"/>
                    </mxGeometry>
                </mxCell>
                <mxCell id="UWY2C43Gr1zC6XrSUPjF-205" value="logradouro varchar (150)" style="shape=partialRectangle;connectable=0;fillColor=none;top=0;left=0;bottom=0;right=0;align=left;spacingLeft=6;overflow=hidden;" parent="UWY2C43Gr1zC6XrSUPjF-203" vertex="1">
                    <mxGeometry x="30" width="325" height="30" as="geometry">
                        <mxRectangle width="325" height="30" as="alternateBounds"/>
                    </mxGeometry>
                </mxCell>
                <mxCell id="UWY2C43Gr1zC6XrSUPjF-206" value="" style="shape=tableRow;horizontal=0;startSize=0;swimlaneHead=0;swimlaneBody=0;fillColor=none;collapsible=0;dropTarget=0;points=[[0,0.5],[1,0.5]];portConstraint=eastwest;top=0;left=0;right=0;bottom=0;" parent="UWY2C43Gr1zC6XrSUPjF-199" vertex="1">
                    <mxGeometry y="90" width="355" height="30" as="geometry"/>
                </mxCell>
                <mxCell id="UWY2C43Gr1zC6XrSUPjF-207" value="" style="shape=partialRectangle;connectable=0;fillColor=none;top=0;left=0;bottom=0;right=0;editable=1;overflow=hidden;" parent="UWY2C43Gr1zC6XrSUPjF-206" vertex="1">
                    <mxGeometry width="30" height="30" as="geometry">
                        <mxRectangle width="30" height="30" as="alternateBounds"/>
                    </mxGeometry>
                </mxCell>
                <mxCell id="UWY2C43Gr1zC6XrSUPjF-208" value="numero int" style="shape=partialRectangle;connectable=0;fillColor=none;top=0;left=0;bottom=0;right=0;align=left;spacingLeft=6;overflow=hidden;" parent="UWY2C43Gr1zC6XrSUPjF-206" vertex="1">
                    <mxGeometry x="30" width="325" height="30" as="geometry">
                        <mxRectangle width="325" height="30" as="alternateBounds"/>
                    </mxGeometry>
                </mxCell>
                <mxCell id="UWY2C43Gr1zC6XrSUPjF-209" value="" style="shape=tableRow;horizontal=0;startSize=0;swimlaneHead=0;swimlaneBody=0;fillColor=none;collapsible=0;dropTarget=0;points=[[0,0.5],[1,0.5]];portConstraint=eastwest;top=0;left=0;right=0;bottom=0;" parent="UWY2C43Gr1zC6XrSUPjF-199" vertex="1">
                    <mxGeometry y="120" width="355" height="30" as="geometry"/>
                </mxCell>
                <mxCell id="UWY2C43Gr1zC6XrSUPjF-210" value="" style="shape=partialRectangle;connectable=0;fillColor=none;top=0;left=0;bottom=0;right=0;editable=1;overflow=hidden;" parent="UWY2C43Gr1zC6XrSUPjF-209" vertex="1">
                    <mxGeometry width="30" height="30" as="geometry">
                        <mxRectangle width="30" height="30" as="alternateBounds"/>
                    </mxGeometry>
                </mxCell>
                <mxCell id="UWY2C43Gr1zC6XrSUPjF-211" value="cidade varchar (100)" style="shape=partialRectangle;connectable=0;fillColor=none;top=0;left=0;bottom=0;right=0;align=left;spacingLeft=6;overflow=hidden;" parent="UWY2C43Gr1zC6XrSUPjF-209" vertex="1">
                    <mxGeometry x="30" width="325" height="30" as="geometry">
                        <mxRectangle width="325" height="30" as="alternateBounds"/>
                    </mxGeometry>
                </mxCell>
                <mxCell id="UWY2C43Gr1zC6XrSUPjF-212" value="" style="shape=tableRow;horizontal=0;startSize=0;swimlaneHead=0;swimlaneBody=0;fillColor=none;collapsible=0;dropTarget=0;points=[[0,0.5],[1,0.5]];portConstraint=eastwest;top=0;left=0;right=0;bottom=0;" parent="UWY2C43Gr1zC6XrSUPjF-199" vertex="1">
                    <mxGeometry y="150" width="355" height="30" as="geometry"/>
                </mxCell>
                <mxCell id="UWY2C43Gr1zC6XrSUPjF-213" value="" style="shape=partialRectangle;connectable=0;fillColor=none;top=0;left=0;bottom=0;right=0;editable=1;overflow=hidden;" parent="UWY2C43Gr1zC6XrSUPjF-212" vertex="1">
                    <mxGeometry width="30" height="30" as="geometry">
                        <mxRectangle width="30" height="30" as="alternateBounds"/>
                    </mxGeometry>
                </mxCell>
                <mxCell id="UWY2C43Gr1zC6XrSUPjF-214" value="estado varchar (100)" style="shape=partialRectangle;connectable=0;fillColor=none;top=0;left=0;bottom=0;right=0;align=left;spacingLeft=6;overflow=hidden;" parent="UWY2C43Gr1zC6XrSUPjF-212" vertex="1">
                    <mxGeometry x="30" width="325" height="30" as="geometry">
                        <mxRectangle width="325" height="30" as="alternateBounds"/>
                    </mxGeometry>
                </mxCell>
                <mxCell id="UWY2C43Gr1zC6XrSUPjF-215" value="" style="shape=tableRow;horizontal=0;startSize=0;swimlaneHead=0;swimlaneBody=0;fillColor=none;collapsible=0;dropTarget=0;points=[[0,0.5],[1,0.5]];portConstraint=eastwest;top=0;left=0;right=0;bottom=0;" parent="UWY2C43Gr1zC6XrSUPjF-199" vertex="1">
                    <mxGeometry y="180" width="355" height="30" as="geometry"/>
                </mxCell>
                <mxCell id="UWY2C43Gr1zC6XrSUPjF-216" value="" style="shape=partialRectangle;connectable=0;fillColor=none;top=0;left=0;bottom=0;right=0;editable=1;overflow=hidden;" parent="UWY2C43Gr1zC6XrSUPjF-215" vertex="1">
                    <mxGeometry width="30" height="30" as="geometry">
                        <mxRectangle width="30" height="30" as="alternateBounds"/>
                    </mxGeometry>
                </mxCell>
                <mxCell id="UWY2C43Gr1zC6XrSUPjF-217" value="cep varchar (10)" style="shape=partialRectangle;connectable=0;fillColor=none;top=0;left=0;bottom=0;right=0;align=left;spacingLeft=6;overflow=hidden;" parent="UWY2C43Gr1zC6XrSUPjF-215" vertex="1">
                    <mxGeometry x="30" width="325" height="30" as="geometry">
                        <mxRectangle width="325" height="30" as="alternateBounds"/>
                    </mxGeometry>
                </mxCell>
                <mxCell id="UWY2C43Gr1zC6XrSUPjF-218" value="" style="shape=tableRow;horizontal=0;startSize=0;swimlaneHead=0;swimlaneBody=0;fillColor=none;collapsible=0;dropTarget=0;points=[[0,0.5],[1,0.5]];portConstraint=eastwest;top=0;left=0;right=0;bottom=0;" parent="UWY2C43Gr1zC6XrSUPjF-199" vertex="1">
                    <mxGeometry y="210" width="355" height="30" as="geometry"/>
                </mxCell>
                <mxCell id="UWY2C43Gr1zC6XrSUPjF-219" value="" style="shape=partialRectangle;connectable=0;fillColor=none;top=0;left=0;bottom=0;right=0;editable=1;overflow=hidden;" parent="UWY2C43Gr1zC6XrSUPjF-218" vertex="1">
                    <mxGeometry width="30" height="30" as="geometry">
                        <mxRectangle width="30" height="30" as="alternateBounds"/>
                    </mxGeometry>
                </mxCell>
                <mxCell id="UWY2C43Gr1zC6XrSUPjF-220" value="complemento varchar (100)" style="shape=partialRectangle;connectable=0;fillColor=none;top=0;left=0;bottom=0;right=0;align=left;spacingLeft=6;overflow=hidden;" parent="UWY2C43Gr1zC6XrSUPjF-218" vertex="1">
                    <mxGeometry x="30" width="325" height="30" as="geometry">
                        <mxRectangle width="325" height="30" as="alternateBounds"/>
                    </mxGeometry>
                </mxCell>
                <mxCell id="UWY2C43Gr1zC6XrSUPjF-238" value="Estoque" style="shape=table;startSize=30;container=1;collapsible=1;childLayout=tableLayout;fixedRows=1;rowLines=0;fontStyle=1;align=center;resizeLast=1;" parent="1" vertex="1">
                    <mxGeometry x="-65" y="70" width="345" height="120" as="geometry"/>
                </mxCell>
                <mxCell id="UWY2C43Gr1zC6XrSUPjF-239" value="" style="shape=tableRow;horizontal=0;startSize=0;swimlaneHead=0;swimlaneBody=0;fillColor=none;collapsible=0;dropTarget=0;points=[[0,0.5],[1,0.5]];portConstraint=eastwest;top=0;left=0;right=0;bottom=1;" parent="UWY2C43Gr1zC6XrSUPjF-238" vertex="1">
                    <mxGeometry y="30" width="345" height="30" as="geometry"/>
                </mxCell>
                <mxCell id="UWY2C43Gr1zC6XrSUPjF-240" value="PK" style="shape=partialRectangle;connectable=0;fillColor=none;top=0;left=0;bottom=0;right=0;fontStyle=1;overflow=hidden;" parent="UWY2C43Gr1zC6XrSUPjF-239" vertex="1">
                    <mxGeometry width="30" height="30" as="geometry">
                        <mxRectangle width="30" height="30" as="alternateBounds"/>
                    </mxGeometry>
                </mxCell>
                <mxCell id="UWY2C43Gr1zC6XrSUPjF-241" value="estoque ID int not null auto increment primary key" style="shape=partialRectangle;connectable=0;fillColor=none;top=0;left=0;bottom=0;right=0;align=left;spacingLeft=6;fontStyle=5;overflow=hidden;" parent="UWY2C43Gr1zC6XrSUPjF-239" vertex="1">
                    <mxGeometry x="30" width="315" height="30" as="geometry">
                        <mxRectangle width="315" height="30" as="alternateBounds"/>
                    </mxGeometry>
                </mxCell>
                <mxCell id="UWY2C43Gr1zC6XrSUPjF-242" value="" style="shape=tableRow;horizontal=0;startSize=0;swimlaneHead=0;swimlaneBody=0;fillColor=none;collapsible=0;dropTarget=0;points=[[0,0.5],[1,0.5]];portConstraint=eastwest;top=0;left=0;right=0;bottom=0;" parent="UWY2C43Gr1zC6XrSUPjF-238" vertex="1">
                    <mxGeometry y="60" width="345" height="30" as="geometry"/>
                </mxCell>
                <mxCell id="UWY2C43Gr1zC6XrSUPjF-243" value="" style="shape=partialRectangle;connectable=0;fillColor=none;top=0;left=0;bottom=0;right=0;editable=1;overflow=hidden;" parent="UWY2C43Gr1zC6XrSUPjF-242" vertex="1">
                    <mxGeometry width="30" height="30" as="geometry">
                        <mxRectangle width="30" height="30" as="alternateBounds"/>
                    </mxGeometry>
                </mxCell>
                <mxCell id="UWY2C43Gr1zC6XrSUPjF-244" value="produto ID int" style="shape=partialRectangle;connectable=0;fillColor=none;top=0;left=0;bottom=0;right=0;align=left;spacingLeft=6;overflow=hidden;" parent="UWY2C43Gr1zC6XrSUPjF-242" vertex="1">
                    <mxGeometry x="30" width="315" height="30" as="geometry">
                        <mxRectangle width="315" height="30" as="alternateBounds"/>
                    </mxGeometry>
                </mxCell>
                <mxCell id="UWY2C43Gr1zC6XrSUPjF-245" value="" style="shape=tableRow;horizontal=0;startSize=0;swimlaneHead=0;swimlaneBody=0;fillColor=none;collapsible=0;dropTarget=0;points=[[0,0.5],[1,0.5]];portConstraint=eastwest;top=0;left=0;right=0;bottom=0;" parent="UWY2C43Gr1zC6XrSUPjF-238" vertex="1">
                    <mxGeometry y="90" width="345" height="30" as="geometry"/>
                </mxCell>
                <mxCell id="UWY2C43Gr1zC6XrSUPjF-246" value="" style="shape=partialRectangle;connectable=0;fillColor=none;top=0;left=0;bottom=0;right=0;editable=1;overflow=hidden;" parent="UWY2C43Gr1zC6XrSUPjF-245" vertex="1">
                    <mxGeometry width="30" height="30" as="geometry">
                        <mxRectangle width="30" height="30" as="alternateBounds"/>
                    </mxGeometry>
                </mxCell>
                <mxCell id="UWY2C43Gr1zC6XrSUPjF-247" value="quantidade int" style="shape=partialRectangle;connectable=0;fillColor=none;top=0;left=0;bottom=0;right=0;align=left;spacingLeft=6;overflow=hidden;" parent="UWY2C43Gr1zC6XrSUPjF-245" vertex="1">
                    <mxGeometry x="30" width="315" height="30" as="geometry">
                        <mxRectangle width="315" height="30" as="alternateBounds"/>
                    </mxGeometry>
                </mxCell>
                <mxCell id="UWY2C43Gr1zC6XrSUPjF-255" value="Fornecedores" style="shape=table;startSize=30;container=1;collapsible=1;childLayout=tableLayout;fixedRows=1;rowLines=0;fontStyle=1;align=center;resizeLast=1;" parent="1" vertex="1">
                    <mxGeometry x="370" y="500" width="360" height="210" as="geometry"/>
                </mxCell>
                <mxCell id="UWY2C43Gr1zC6XrSUPjF-256" value="" style="shape=tableRow;horizontal=0;startSize=0;swimlaneHead=0;swimlaneBody=0;fillColor=none;collapsible=0;dropTarget=0;points=[[0,0.5],[1,0.5]];portConstraint=eastwest;top=0;left=0;right=0;bottom=1;" parent="UWY2C43Gr1zC6XrSUPjF-255" vertex="1">
                    <mxGeometry y="30" width="360" height="30" as="geometry"/>
                </mxCell>
                <mxCell id="UWY2C43Gr1zC6XrSUPjF-257" value="PK" style="shape=partialRectangle;connectable=0;fillColor=none;top=0;left=0;bottom=0;right=0;fontStyle=1;overflow=hidden;" parent="UWY2C43Gr1zC6XrSUPjF-256" vertex="1">
                    <mxGeometry width="30" height="30" as="geometry">
                        <mxRectangle width="30" height="30" as="alternateBounds"/>
                    </mxGeometry>
                </mxCell>
                <mxCell id="UWY2C43Gr1zC6XrSUPjF-258" value="fornecedor ID int not null auto encrement primary key" style="shape=partialRectangle;connectable=0;fillColor=none;top=0;left=0;bottom=0;right=0;align=left;spacingLeft=6;fontStyle=5;overflow=hidden;" parent="UWY2C43Gr1zC6XrSUPjF-256" vertex="1">
                    <mxGeometry x="30" width="330" height="30" as="geometry">
                        <mxRectangle width="330" height="30" as="alternateBounds"/>
                    </mxGeometry>
                </mxCell>
                <mxCell id="UWY2C43Gr1zC6XrSUPjF-259" value="" style="shape=tableRow;horizontal=0;startSize=0;swimlaneHead=0;swimlaneBody=0;fillColor=none;collapsible=0;dropTarget=0;points=[[0,0.5],[1,0.5]];portConstraint=eastwest;top=0;left=0;right=0;bottom=0;" parent="UWY2C43Gr1zC6XrSUPjF-255" vertex="1">
                    <mxGeometry y="60" width="360" height="30" as="geometry"/>
                </mxCell>
                <mxCell id="UWY2C43Gr1zC6XrSUPjF-260" value="" style="shape=partialRectangle;connectable=0;fillColor=none;top=0;left=0;bottom=0;right=0;editable=1;overflow=hidden;" parent="UWY2C43Gr1zC6XrSUPjF-259" vertex="1">
                    <mxGeometry width="30" height="30" as="geometry">
                        <mxRectangle width="30" height="30" as="alternateBounds"/>
                    </mxGeometry>
                </mxCell>
                <mxCell id="UWY2C43Gr1zC6XrSUPjF-261" value="nome varchar (150)" style="shape=partialRectangle;connectable=0;fillColor=none;top=0;left=0;bottom=0;right=0;align=left;spacingLeft=6;overflow=hidden;" parent="UWY2C43Gr1zC6XrSUPjF-259" vertex="1">
                    <mxGeometry x="30" width="330" height="30" as="geometry">
                        <mxRectangle width="330" height="30" as="alternateBounds"/>
                    </mxGeometry>
                </mxCell>
                <mxCell id="UWY2C43Gr1zC6XrSUPjF-262" value="" style="shape=tableRow;horizontal=0;startSize=0;swimlaneHead=0;swimlaneBody=0;fillColor=none;collapsible=0;dropTarget=0;points=[[0,0.5],[1,0.5]];portConstraint=eastwest;top=0;left=0;right=0;bottom=0;" parent="UWY2C43Gr1zC6XrSUPjF-255" vertex="1">
                    <mxGeometry y="90" width="360" height="30" as="geometry"/>
                </mxCell>
                <mxCell id="UWY2C43Gr1zC6XrSUPjF-263" value="" style="shape=partialRectangle;connectable=0;fillColor=none;top=0;left=0;bottom=0;right=0;editable=1;overflow=hidden;" parent="UWY2C43Gr1zC6XrSUPjF-262" vertex="1">
                    <mxGeometry width="30" height="30" as="geometry">
                        <mxRectangle width="30" height="30" as="alternateBounds"/>
                    </mxGeometry>
                </mxCell>
                <mxCell id="UWY2C43Gr1zC6XrSUPjF-264" value="CNPJ varchar (14)" style="shape=partialRectangle;connectable=0;fillColor=none;top=0;left=0;bottom=0;right=0;align=left;spacingLeft=6;overflow=hidden;" parent="UWY2C43Gr1zC6XrSUPjF-262" vertex="1">
                    <mxGeometry x="30" width="330" height="30" as="geometry">
                        <mxRectangle width="330" height="30" as="alternateBounds"/>
                    </mxGeometry>
                </mxCell>
                <mxCell id="UWY2C43Gr1zC6XrSUPjF-265" value="" style="shape=tableRow;horizontal=0;startSize=0;swimlaneHead=0;swimlaneBody=0;fillColor=none;collapsible=0;dropTarget=0;points=[[0,0.5],[1,0.5]];portConstraint=eastwest;top=0;left=0;right=0;bottom=0;" parent="UWY2C43Gr1zC6XrSUPjF-255" vertex="1">
                    <mxGeometry y="120" width="360" height="30" as="geometry"/>
                </mxCell>
                <mxCell id="UWY2C43Gr1zC6XrSUPjF-266" value="" style="shape=partialRectangle;connectable=0;fillColor=none;top=0;left=0;bottom=0;right=0;editable=1;overflow=hidden;" parent="UWY2C43Gr1zC6XrSUPjF-265" vertex="1">
                    <mxGeometry width="30" height="30" as="geometry">
                        <mxRectangle width="30" height="30" as="alternateBounds"/>
                    </mxGeometry>
                </mxCell>
                <mxCell id="UWY2C43Gr1zC6XrSUPjF-267" value="representante varchar (100)" style="shape=partialRectangle;connectable=0;fillColor=none;top=0;left=0;bottom=0;right=0;align=left;spacingLeft=6;overflow=hidden;" parent="UWY2C43Gr1zC6XrSUPjF-265" vertex="1">
                    <mxGeometry x="30" width="330" height="30" as="geometry">
                        <mxRectangle width="330" height="30" as="alternateBounds"/>
                    </mxGeometry>
                </mxCell>
                <mxCell id="UWY2C43Gr1zC6XrSUPjF-270" value="" style="shape=tableRow;horizontal=0;startSize=0;swimlaneHead=0;swimlaneBody=0;fillColor=none;collapsible=0;dropTarget=0;points=[[0,0.5],[1,0.5]];portConstraint=eastwest;top=0;left=0;right=0;bottom=0;" parent="UWY2C43Gr1zC6XrSUPjF-255" vertex="1">
                    <mxGeometry y="150" width="360" height="30" as="geometry"/>
                </mxCell>
                <mxCell id="UWY2C43Gr1zC6XrSUPjF-271" value="" style="shape=partialRectangle;connectable=0;fillColor=none;top=0;left=0;bottom=0;right=0;editable=1;overflow=hidden;" parent="UWY2C43Gr1zC6XrSUPjF-270" vertex="1">
                    <mxGeometry width="30" height="30" as="geometry">
                        <mxRectangle width="30" height="30" as="alternateBounds"/>
                    </mxGeometry>
                </mxCell>
                <mxCell id="UWY2C43Gr1zC6XrSUPjF-272" value="telefone varchar (9)" style="shape=partialRectangle;connectable=0;fillColor=none;top=0;left=0;bottom=0;right=0;align=left;spacingLeft=6;overflow=hidden;" parent="UWY2C43Gr1zC6XrSUPjF-270" vertex="1">
                    <mxGeometry x="30" width="330" height="30" as="geometry">
                        <mxRectangle width="330" height="30" as="alternateBounds"/>
                    </mxGeometry>
                </mxCell>
                <mxCell id="UWY2C43Gr1zC6XrSUPjF-274" value="" style="shape=tableRow;horizontal=0;startSize=0;swimlaneHead=0;swimlaneBody=0;fillColor=none;collapsible=0;dropTarget=0;points=[[0,0.5],[1,0.5]];portConstraint=eastwest;top=0;left=0;right=0;bottom=0;" parent="UWY2C43Gr1zC6XrSUPjF-255" vertex="1">
                    <mxGeometry y="180" width="360" height="30" as="geometry"/>
                </mxCell>
                <mxCell id="UWY2C43Gr1zC6XrSUPjF-275" value="" style="shape=partialRectangle;connectable=0;fillColor=none;top=0;left=0;bottom=0;right=0;editable=1;overflow=hidden;" parent="UWY2C43Gr1zC6XrSUPjF-274" vertex="1">
                    <mxGeometry width="30" height="30" as="geometry">
                        <mxRectangle width="30" height="30" as="alternateBounds"/>
                    </mxGeometry>
                </mxCell>
                <mxCell id="UWY2C43Gr1zC6XrSUPjF-276" value="endereco ID int" style="shape=partialRectangle;connectable=0;fillColor=none;top=0;left=0;bottom=0;right=0;align=left;spacingLeft=6;overflow=hidden;" parent="UWY2C43Gr1zC6XrSUPjF-274" vertex="1">
                    <mxGeometry x="30" width="330" height="30" as="geometry">
                        <mxRectangle width="330" height="30" as="alternateBounds"/>
                    </mxGeometry>
                </mxCell>
                <mxCell id="UWY2C43Gr1zC6XrSUPjF-286" value="" style="edgeStyle=orthogonalEdgeStyle;fontSize=12;html=1;endArrow=ERmandOne;startArrow=ERmandOne;rounded=0;exitX=1;exitY=0.5;exitDx=0;exitDy=0;" parent="1" source="UWY2C43Gr1zC6XrSUPjF-24" edge="1">
                    <mxGeometry width="100" height="100" relative="1" as="geometry">
                        <mxPoint x="-145" y="440" as="sourcePoint"/>
                        <mxPoint x="-65" y="370" as="targetPoint"/>
                        <Array as="points">
                            <mxPoint x="-130" y="285"/>
                            <mxPoint x="-130" y="370"/>
                        </Array>
                    </mxGeometry>
                </mxCell>
                <mxCell id="UWY2C43Gr1zC6XrSUPjF-287" value="" style="edgeStyle=orthogonalEdgeStyle;fontSize=12;html=1;endArrow=ERmandOne;startArrow=ERmandOne;rounded=0;exitX=1;exitY=0.5;exitDx=0;exitDy=0;entryX=0;entryY=0.5;entryDx=0;entryDy=0;" parent="1" source="UWY2C43Gr1zC6XrSUPjF-200" target="UWY2C43Gr1zC6XrSUPjF-274" edge="1">
                    <mxGeometry width="100" height="100" relative="1" as="geometry">
                        <mxPoint x="340" y="420" as="sourcePoint"/>
                        <mxPoint x="440" y="320" as="targetPoint"/>
                    </mxGeometry>
                </mxCell>
                <mxCell id="UWY2C43Gr1zC6XrSUPjF-291" value="" style="edgeStyle=orthogonalEdgeStyle;fontSize=12;html=1;endArrow=ERoneToMany;startArrow=ERmandOne;rounded=0;entryX=0;entryY=0.5;entryDx=0;entryDy=0;exitX=0;exitY=0.5;exitDx=0;exitDy=0;" parent="1" source="UWY2C43Gr1zC6XrSUPjF-15" target="UWY2C43Gr1zC6XrSUPjF-45" edge="1">
                    <mxGeometry width="100" height="100" relative="1" as="geometry">
                        <mxPoint x="-650" y="490" as="sourcePoint"/>
                        <mxPoint x="-550" y="390" as="targetPoint"/>
                        <Array as="points">
                            <mxPoint x="-520" y="195"/>
                            <mxPoint x="-520" y="665"/>
                        </Array>
                    </mxGeometry>
                </mxCell>
                <mxCell id="UWY2C43Gr1zC6XrSUPjF-292" value="" style="edgeStyle=orthogonalEdgeStyle;fontSize=12;html=1;endArrow=ERoneToMany;startArrow=ERmandOne;rounded=0;exitX=1;exitY=0.5;exitDx=0;exitDy=0;entryX=0;entryY=0.5;entryDx=0;entryDy=0;" parent="1" source="UWY2C43Gr1zC6XrSUPjF-242" target="UWY2C43Gr1zC6XrSUPjF-28" edge="1">
                    <mxGeometry width="100" height="100" relative="1" as="geometry">
                        <mxPoint x="314" y="80" as="sourcePoint"/>
                        <mxPoint x="290" y="270" as="targetPoint"/>
                    </mxGeometry>
                </mxCell>
                <mxCell id="UWY2C43Gr1zC6XrSUPjF-297" value="" style="edgeStyle=orthogonalEdgeStyle;fontSize=12;html=1;endArrow=ERmany;startArrow=ERmany;rounded=0;exitX=1;exitY=0.5;exitDx=0;exitDy=0;entryX=1;entryY=0.5;entryDx=0;entryDy=0;" parent="1" source="UWY2C43Gr1zC6XrSUPjF-294" target="UWY2C43Gr1zC6XrSUPjF-256" edge="1">
                    <mxGeometry width="100" height="100" relative="1" as="geometry">
                        <mxPoint x="730" y="460" as="sourcePoint"/>
                        <mxPoint x="830" y="360" as="targetPoint"/>
                        <Array as="points">
                            <mxPoint x="750" y="345"/>
                            <mxPoint x="750" y="545"/>
                        </Array>
                    </mxGeometry>
                </mxCell>
            </root>
        </mxGraphModel>
    </diagram>
</mxfile>